# Blender 4.5.4 LTS
# www.blender.org
o Cube
v 1.000000 1.000000 -1.000000
v 1.000000 -1.000000 -1.000000
v 1.000000 1.000000 1.000000
v 1.000000 -1.000000 1.000000
v -1.000000 1.000000 -1.000000
v -1.000000 -1.000000 -1.000000
v -1.000000 1.000000 1.000000
v -1.000000 -1.000000 1.000000
vn -0.0000 1.0000 -0.0000
vn -0.0000 -0.0000 1.0000
vn -1.0000 -0.0000 -0.0000
vn -0.0000 -1.0000 -0.0000
vn 1.0000 -0.0000 -0.0000
vn -0.0000 -0.0000 -1.0000
vt 0.000000 1.000000
vt 1.000000 1.000000
vt 1.000000 0.000000
vt 0.000000 0.000000
vt 0.000000 1.000000
vt 0.000000 0.000000
vt 1.000000 0.000000
vt 0.000000 0.000000
s 1
f 1/1/1 5/2/1 7/3/1 3/4/1
f 4/3/2 3/2/2 7/5/2 8/6/2
f 8/7/3 7/2/3 5/5/3 6/8/3
f 6/6/4 2/3/4 4/2/4 8/5/4
f 2/3/5 1/2/5 3/5/5 4/6/5
f 6/7/6 5/2/6 1/5/6 2/8/6
